<?xml version="1.0" ?><!DOCTYPE svg  PUBLIC '-//W3C//DTD SVG 1.1//EN'  'http://www.w3.org/Graphics/SVG/1.1/DTD/svg11.dtd'><svg enable-background="new 0 0 128 128" height="128px" id="Layer_1" version="1.1" viewBox="0 0 128 128" width="128px" xml:space="preserve" xmlns="http://www.w3.org/2000/svg" xmlns:xlink="http://www.w3.org/1999/xlink"><path d="M80.748,80.578c-8.829,0-17.129-3.438-23.371-9.682c-12.887-12.886-12.887-33.854,0-46.742  c6.242-6.242,14.543-9.68,23.371-9.68c8.829,0,17.13,3.438,23.372,9.68c6.243,6.243,9.682,14.543,9.682,23.372  s-3.438,17.128-9.682,23.37C97.878,77.14,89.578,80.578,80.748,80.578z M80.748,18.475c-7.76,0-15.056,3.022-20.543,8.508  c-11.327,11.328-11.327,29.759,0,41.085c5.487,5.487,12.783,8.51,20.543,8.51c7.761,0,15.057-3.022,20.544-8.51  s8.51-12.782,8.51-20.542s-3.022-15.056-8.51-20.543C95.805,21.497,88.509,18.475,80.748,18.475z"/><path d="M53.88,76.396c-0.512,0-1.023-0.194-1.414-0.585c-0.781-0.78-0.781-2.047-0.001-2.828l3.834-3.837  c0.781-0.782,2.048-0.782,2.829-0.001c0.781,0.78,0.781,2.047,0.001,2.828l-3.834,3.837C54.904,76.201,54.392,76.396,53.88,76.396z"/><path d="M26.23,114.042c-3.204,0-6.218-1.247-8.483-3.514c-4.677-4.677-4.677-12.288,0-16.966l19.065-19.064  c2.266-2.268,5.279-3.516,8.484-3.516c3.204,0,6.217,1.248,8.483,3.516c4.676,4.676,4.676,12.285,0,16.963l-19.07,19.068  C32.448,112.794,29.437,114.042,26.23,114.042z M45.297,74.982c-2.137,0-4.146,0.832-5.656,2.344L20.575,96.391  c-3.117,3.117-3.117,8.191,0,11.31c1.511,1.511,3.52,2.342,5.655,2.342s4.143-0.831,5.65-2.341l19.071-19.068  c3.116-3.117,3.116-8.189,0-11.307C49.441,75.814,47.433,74.982,45.297,74.982z"/><path d="M80.749,70.393c-6.108,0-11.851-2.379-16.17-6.698c-8.913-8.916-8.912-23.421,0-32.334c4.319-4.32,10.062-6.699,16.17-6.699  c6.107,0,11.85,2.379,16.168,6.699c4.318,4.318,6.697,10.06,6.697,16.167c0,6.106-2.379,11.849-6.698,16.168  C92.599,68.014,86.856,70.393,80.749,70.393z M80.749,28.661c-5.04,0-9.778,1.963-13.342,5.527c-7.353,7.354-7.353,19.322,0,26.678  c3.563,3.563,8.302,5.526,13.342,5.526c5.039,0,9.776-1.963,13.339-5.526c3.563-3.564,5.526-8.302,5.526-13.34  c0-5.039-1.963-9.775-5.526-13.338C90.525,30.624,85.788,28.661,80.749,28.661z"/></svg>